<svg width="20" height="20" viewBox="0 0 20 20" fill="none" xmlns="http://www.w3.org/2000/svg">
<path d="M19.3002 7.05887C19.3003 5.18051 18.5641 3.40988 17.2273 2.07306C15.8904 0.736237 14.1198 0 12.2413 0H8.05887C8.05872 0 8.05872 0 8.05872 0C6.18051 0 4.40973 0.736237 3.07306 2.07291C1.73624 3.40988 1 5.18051 1 7.05887V10.3465C1 11.8013 1.44373 13.2005 2.28326 14.3933C3.02393 15.4456 4.02002 16.2675 5.18137 16.7886V18.6771C5.18137 19.6535 5.72809 20 6.19623 20C6.5307 20 6.86517 19.8349 7.1908 19.5094L9.29468 17.4055L12.2415 17.4054C14.1198 17.4054 15.8904 16.6692 17.2273 15.3325C18.5641 13.9957 19.3003 12.2249 19.3003 10.3465L19.3002 7.05887ZM12.2415 16.2335L9.05206 16.2337C8.89658 16.2337 8.74765 16.2953 8.63779 16.4052L6.36224 18.6807C6.35934 18.6838 6.35629 18.6867 6.35324 18.6896C6.35324 18.6855 6.35324 18.6812 6.35324 18.6771V16.3976C6.35324 16.1545 6.20325 15.9367 5.9762 15.8501C3.70081 14.9818 2.17203 12.7701 2.17203 10.3465V7.05887C2.17203 5.49347 2.78635 4.01703 3.90176 2.90146C5.01718 1.78619 6.49347 1.17188 8.05887 1.17188H12.2413C13.8067 1.17188 15.2831 1.78619 16.3986 2.90161C17.5141 4.01718 18.1284 5.49362 18.1283 7.05887L18.1284 10.3465C18.1283 13.5927 15.4875 16.2335 12.2415 16.2335Z" fill="black"/>
<path d="M11.708 9.58353C11.4793 9.35464 11.1084 9.35464 10.8795 9.58353L10.4062 10.0567L8.57206 8.22275L9.04538 7.74957C9.15525 7.63971 9.21704 7.49063 9.21704 7.33514C9.21704 7.17981 9.15525 7.03073 9.04538 6.92087L6.82645 4.70193C6.71659 4.59207 6.56766 4.53027 6.41217 4.53027C6.25684 4.53027 6.10776 4.59207 5.9979 4.70193L4.44455 6.25528C3.60456 7.09528 3.60456 8.46231 4.44471 9.30276L9.32615 14.1845C9.73203 14.5902 10.2733 14.8136 10.8499 14.8136C11.4267 14.8136 11.9679 14.5902 12.3738 14.1845L13.9271 12.6313C14.037 12.5213 14.0988 12.3724 14.0988 12.2169C14.0988 12.0616 14.037 11.9125 13.9271 11.8026L11.708 9.58353ZM11.5451 13.3557C11.3606 13.5401 11.1137 13.6418 10.8499 13.6418C10.5861 13.6418 10.3392 13.5401 10.1547 13.3557L5.27341 8.47406C4.89011 8.09076 4.88996 7.46698 5.27326 7.08383L6.41217 5.94476L7.8024 7.33514L7.32907 7.80832C7.21921 7.91818 7.15741 8.06726 7.15741 8.22259C7.15741 8.37808 7.21921 8.52701 7.32907 8.63702L9.99173 11.2997C10.2206 11.5284 10.5916 11.5286 10.8204 11.2997L11.2938 10.8265L12.684 12.2167L11.5451 13.3557Z" fill="black"/>
<path d="M10.2927 2.59204C9.96909 2.59204 9.70679 2.85434 9.70679 3.17798C9.70679 3.50146 9.96909 3.76392 10.2927 3.76392C11.6337 3.76392 12.8945 4.28607 13.8427 5.23441C14.791 6.18259 15.3132 7.44327 15.3132 8.78436C15.3132 9.10785 15.5755 9.3703 15.8991 9.3703C16.2226 9.3703 16.485 9.108 16.485 8.78436C16.485 7.13031 15.841 5.57529 14.6714 4.4057C13.5018 3.23611 11.9468 2.59204 10.2927 2.59204Z" fill="black"/>
<path d="M12.8028 8.78409C12.8028 9.10757 13.0652 9.37003 13.3887 9.37003C13.7124 9.37003 13.9747 9.10757 13.9747 8.78409C13.9747 6.75391 12.3229 5.10229 10.2927 5.10229C9.96909 5.10229 9.70679 5.36459 9.70679 5.68823C9.70679 6.01187 9.96909 6.27417 10.2927 6.27417C11.6768 6.27417 12.8028 7.40012 12.8028 8.78409Z" fill="black"/>
</svg>
