<svg width="63" height="63" viewBox="0 0 63 63" fill="none" xmlns="http://www.w3.org/2000/svg">
<path d="M62.6645 58.9573L60.281 53.4603C60.7738 53.0447 61.1271 52.4878 61.293 51.8648C61.4589 51.2418 61.4294 50.5829 61.2085 49.9772L55.205 33.396C55.0319 32.9169 55.0278 32.393 55.1935 31.9112L56.1404 29.1679C56.4439 28.2807 56.4323 27.3161 56.1076 26.4364C55.7829 25.5568 55.1649 24.816 54.3577 24.3389L35.3473 13.1708C34.6832 12.7816 33.9222 12.5891 33.1529 12.6158C32.3836 12.6424 31.6378 12.8871 31.0022 13.3213L23.6895 5.67716C22.908 4.86453 21.9013 4.3043 20.7989 4.06854L4.80701 0.628979C4.68915 0.603495 4.56742 0.601518 4.4488 0.623161C4.33018 0.644804 4.21699 0.689642 4.11573 0.755105C4.01447 0.820568 3.92712 0.905369 3.85868 1.00465C3.79025 1.10393 3.74208 1.21574 3.71694 1.33367L2.72597 5.94772C2.67494 6.18564 2.72052 6.4341 2.85268 6.63842C2.98483 6.84275 3.19273 6.98621 3.43066 7.03726L18.9459 10.3709C19.0758 10.3991 19.1947 10.4648 19.2878 10.5597L26.3137 17.9002L26.1994 18.0145C25.6607 18.5561 25.2847 19.238 25.1142 19.9826C24.9437 20.7273 24.9854 21.5048 25.2347 22.2269L36.9701 55.8984C37.1201 56.3298 37.3616 56.7237 37.6779 57.0531C37.9942 57.3825 38.378 57.6397 38.803 57.8071C39.2279 57.9745 39.684 58.0481 40.14 58.0229C40.596 57.9978 41.0412 57.8744 41.4452 57.6612L48.8995 53.734L49.4762 55.059C49.7588 55.711 50.2523 56.2491 50.8776 56.5868C51.5028 56.9245 52.2235 57.0421 52.9237 56.9209L55.2092 62.1877C55.2804 62.3519 55.398 62.4917 55.5476 62.5899C55.6972 62.6881 55.8723 62.7404 56.0512 62.7403C56.1775 62.7408 56.3026 62.7149 56.4183 62.6643L62.1905 60.1638C62.3011 60.1161 62.4012 60.047 62.4851 59.9605C62.569 59.874 62.635 59.7718 62.6793 59.6598C62.7236 59.5478 62.7454 59.4281 62.7434 59.3077C62.7414 59.1872 62.7157 59.0684 62.6677 58.9579L62.6645 58.9573ZM20.6138 9.2929C20.2686 8.93168 19.8229 8.68252 19.3344 8.57772L4.71263 5.43545L5.31822 2.61616L20.4119 5.86225C21.1566 6.02124 21.8367 6.3992 22.365 6.9476L29.6531 14.5629L27.6125 16.602L20.6138 9.2929ZM51.9159 55.0475C51.748 54.9848 51.5946 54.8888 51.4648 54.7653C51.3351 54.6417 51.2317 54.4932 51.1609 54.3286L50.1925 52.0966C50.1423 51.9807 50.0686 51.8764 49.9762 51.7903C49.8838 51.7042 49.7746 51.6382 49.6555 51.5963C49.5364 51.5544 49.4098 51.5375 49.2839 51.5469C49.1579 51.5562 49.0353 51.5914 48.9236 51.6504L40.5931 56.039C40.4227 56.1287 40.2349 56.1805 40.0426 56.191C39.8503 56.2015 39.6579 56.1704 39.4787 56.0998C39.2995 56.0292 39.1377 55.9207 39.0043 55.7818C38.8708 55.6429 38.769 55.4768 38.7056 55.2949L26.967 21.6213C26.8308 21.2258 26.8081 20.7999 26.9017 20.3922C26.9952 19.9844 27.2011 19.611 27.4961 19.3143L31.7142 15.0987C32.0632 14.7503 32.5179 14.5273 33.0071 14.4649C33.4963 14.4025 33.9924 14.5041 34.4177 14.7537L53.4281 25.9218C53.8708 26.1835 54.2097 26.5897 54.3879 27.0721C54.566 27.5545 54.5724 28.0836 54.4059 28.5702L53.459 31.3134C53.1562 32.1923 53.1635 33.1484 53.4794 34.0226L59.4829 50.6033C59.5981 50.917 59.5911 51.2626 59.4634 51.5714C59.3357 51.8803 59.0966 52.1298 58.7935 52.2706C58.7856 52.2738 58.7772 52.2748 58.7693 52.2785C58.7615 52.2822 58.7431 52.2937 58.7295 52.3005L53.083 54.9478C53.0789 54.9478 53.0741 54.9505 53.0699 54.9526C53.0657 54.9547 53.0553 54.9609 53.0474 54.9646L52.9562 55.0076C52.7941 55.0845 52.6181 55.1277 52.4388 55.1345C52.2595 55.1414 52.0808 55.1118 51.9133 55.0475H51.9159ZM56.5299 60.6168L54.6345 56.2482L58.6718 54.3548L60.6191 58.8451L56.5299 60.6168Z" fill="white"/>
<path d="M37.0164 19.9299L39.7953 21.5621C40.0052 21.6854 40.2554 21.7204 40.491 21.6592C40.7266 21.598 40.9283 21.4458 41.0516 21.236C41.1749 21.0261 41.2099 20.7759 41.1487 20.5403C41.0876 20.3047 40.9353 20.103 40.7255 19.9797L37.9466 18.3475C37.7367 18.2241 37.4865 18.1892 37.2509 18.2503C37.0153 18.3115 36.8136 18.4637 36.6903 18.6736C36.5669 18.8834 36.532 19.1337 36.5932 19.3693C36.6543 19.6049 36.8066 19.8065 37.0164 19.9299Z" fill="white"/>
<path d="M43.4922 34.4914C43.144 33.5054 42.4448 32.6823 41.5281 32.1791L39.5142 31.0723C38.7591 30.6573 37.8959 30.481 37.0386 30.5667C36.1813 30.6523 35.3701 30.996 34.712 31.5522C34.054 32.1085 33.5801 32.8511 33.3529 33.6823C33.1257 34.5134 33.1559 35.3939 33.4394 36.2075L39.6002 53.8856C39.6436 54.0102 39.7134 54.124 39.8049 54.2192C39.8963 54.3144 40.0072 54.3888 40.13 54.4372C40.2528 54.4856 40.3846 54.507 40.5164 54.4998C40.6482 54.4927 40.7769 54.4572 40.8937 54.3957L48.3181 50.4901C48.5133 50.3874 48.665 50.2178 48.7454 50.0124C48.8258 49.8071 48.8296 49.5796 48.7559 49.3717L43.4922 34.4914ZM40.9823 52.2754L35.1723 35.6019C35.0452 35.2364 35.0073 34.8459 35.0619 34.4628C35.1164 34.0798 35.2618 33.7153 35.4859 33.3999C35.71 33.0844 36.0063 32.8272 36.3501 32.6496C36.6938 32.472 37.0751 32.3791 37.462 32.3789H37.4746L41.8674 43.8505L41.1538 46.1376C41.1178 46.2526 41.1048 46.3736 41.1157 46.4936C41.1265 46.6136 41.1608 46.7303 41.2168 46.837C41.2728 46.9437 41.3492 47.0383 41.4418 47.1154C41.5343 47.1925 41.6412 47.2506 41.7562 47.2864C41.8447 47.3144 41.9371 47.3286 42.0299 47.3284C42.2254 47.3284 42.4157 47.2659 42.5731 47.1501C42.7306 47.0343 42.8469 46.8711 42.905 46.6845L43.714 44.0949C43.7758 43.8979 43.7692 43.6857 43.6952 43.493L39.801 33.3227L40.6452 33.7867C41.1669 34.0736 41.565 34.5424 41.7635 35.1038L46.7624 49.2353L40.9823 52.2754Z" fill="white"/>
<path d="M7.15958 17.9563C6.89217 18.231 0.608154 24.7536 0.608154 29.892C0.608154 30.8388 0.794632 31.7762 1.15694 32.6509C1.51925 33.5256 2.05029 34.3204 2.71975 34.9899C3.38921 35.6593 4.18397 36.1904 5.05867 36.5527C5.93336 36.915 6.87084 37.1014 7.8176 37.1014C8.76436 37.1014 9.70185 36.915 10.5765 36.5527C11.4512 36.1904 12.246 35.6593 12.9155 34.9899C13.5849 34.3204 14.116 33.5256 14.4783 32.6509C14.8406 31.7762 15.027 30.8388 15.027 29.892C15.027 24.7536 8.74303 18.2331 8.47563 17.9584C8.29972 17.7868 8.0638 17.6905 7.81803 17.6901C7.57226 17.6897 7.33603 17.7852 7.15958 17.9563ZM7.8176 35.2642C6.39308 35.2627 5.0273 34.6963 4.01981 33.6892C3.01232 32.6821 2.44537 31.3165 2.44329 29.892C2.44329 26.3827 6.25407 21.7215 7.81813 19.9561C9.38218 21.7178 13.1919 26.3754 13.1919 29.892C13.1898 31.3165 12.6229 32.6821 11.6154 33.6892C10.6079 34.6963 9.24213 35.2627 7.8176 35.2642Z" fill="white"/>
</svg>
