<svg width="235" height="33" viewBox="0 0 235 33" fill="none" xmlns="http://www.w3.org/2000/svg">
<rect y="7.27368" width="43.8136" height="2.38983" rx="1.19492" fill="black"/>
<rect x="191.187" y="7.27368" width="43.8136" height="2.38983" rx="1.19492" fill="black"/>
<rect x="14.3391" y="16.0361" width="29.4746" height="2.38983" rx="1.19492" fill="black"/>
<rect x="191.187" y="16.0361" width="29.4746" height="2.38983" rx="1.19492" fill="black"/>
<rect x="31.0679" y="24.7988" width="12.7458" height="2.38983" rx="1.19492" fill="black"/>
<rect x="191.187" y="24.7988" width="12.7458" height="2.38983" rx="1.19492" fill="black"/>
<path d="M97.7454 10.6676C97.8974 11.0323 98.061 11.3058 98.2364 11.4882C98.4235 11.6591 98.6047 11.7503 98.7801 11.7617V12.1036C97.9383 12.0694 96.8744 12.0523 95.5883 12.0523C94.2555 12.0523 93.2734 12.0694 92.642 12.1036V11.7617C93.0863 11.7389 93.402 11.6876 93.589 11.6078C93.7761 11.5167 93.8696 11.3628 93.8696 11.1463C93.8696 10.9411 93.7995 10.6676 93.6592 10.3257L92.6245 7.52202H89.082L88.7838 8.29132C88.398 9.26006 88.2051 10.0009 88.2051 10.5137C88.2051 10.981 88.3396 11.3001 88.6085 11.4711C88.8774 11.642 89.2749 11.7389 89.801 11.7617V12.1036C88.9241 12.0694 88.1583 12.0523 87.5036 12.0523C86.9541 12.0523 86.504 12.0694 86.1533 12.1036V11.7617C86.4455 11.7161 86.7203 11.5395 86.9775 11.2317C87.2347 10.924 87.4978 10.4339 87.7667 9.76153L91.66 0C92.0341 0.0227937 92.3439 0.0341905 92.5894 0.0341905C92.8233 0.0341905 93.1272 0.0227937 93.5014 0L97.7454 10.6676ZM92.5017 7.18011L90.9058 2.90623L89.2223 7.18011H92.5017Z" fill="black"/>
<path d="M105.51 2.99171C106.422 2.99171 107.159 3.35641 107.72 4.08582C108.281 4.81523 108.562 5.88085 108.562 7.28268C108.562 9.0948 108.187 10.3941 107.439 11.1805C106.691 11.9554 105.703 12.3429 104.475 12.3429C103.797 12.3429 103.254 12.2347 102.844 12.0181V13.4371C102.844 13.9613 102.967 14.326 103.213 14.5312C103.47 14.7363 103.85 14.8389 104.353 14.8389V15.1979L103.844 15.1808C102.441 15.1466 101.535 15.1295 101.126 15.1295C100.775 15.1295 99.9684 15.1523 98.7057 15.1979V14.8389C99.0681 14.8389 99.3195 14.7477 99.4598 14.5654C99.6118 14.3944 99.6878 14.0753 99.6878 13.608V5.11155C99.6878 4.58729 99.6118 4.20549 99.4598 3.96615C99.3195 3.72682 99.0681 3.60715 98.7057 3.60715V3.24814C99.0681 3.28233 99.4306 3.29943 99.793 3.29943C101.009 3.29943 102.026 3.21965 102.844 3.06009V4.27387C103.382 3.4191 104.271 2.99171 105.51 2.99171ZM103.458 11.8301C104.101 11.8301 104.563 11.4939 104.844 10.8214C105.136 10.1376 105.282 9.0891 105.282 7.67588C105.282 6.27405 105.177 5.2939 104.966 4.73545C104.756 4.1656 104.47 3.88068 104.107 3.88068C103.768 3.88068 103.47 4.00035 103.213 4.23968C102.967 4.46762 102.844 4.75825 102.844 5.11155V11.6933C102.996 11.7845 103.201 11.8301 103.458 11.8301Z" fill="black"/>
<path d="M114.968 10.4795C115.822 10.4795 116.529 10.0977 117.09 9.33414L117.388 9.43671C117.131 10.2345 116.693 10.9183 116.073 11.4882C115.465 12.058 114.682 12.3429 113.723 12.3429C112.495 12.3429 111.513 11.9725 110.777 11.2317C110.04 10.4909 109.672 9.30565 109.672 7.67588C109.672 6.11449 110.081 4.9463 110.899 4.1713C111.73 3.38491 112.823 2.99171 114.179 2.99171C116.389 2.99171 117.493 4.26817 117.493 6.8211H112.969C112.957 6.95787 112.951 7.16301 112.951 7.43654C112.951 8.53065 113.144 9.31135 113.53 9.77862C113.928 10.2459 114.407 10.4795 114.968 10.4795ZM114.056 3.38491C113.401 3.38491 113.016 4.42203 112.899 6.49629H114.933C114.945 5.58453 114.875 4.83802 114.723 4.25678C114.582 3.67553 114.36 3.38491 114.056 3.38491Z" fill="black"/>
<path d="M129.067 3.60715C128.704 3.60715 128.447 3.69832 128.295 3.88068C128.155 4.05163 128.085 4.37075 128.085 4.83802V10.5137C128.085 10.981 128.155 11.3058 128.295 11.4882C128.447 11.6591 128.704 11.7446 129.067 11.7446V12.1036C127.804 12.058 126.986 12.0352 126.612 12.0352C126.214 12.0352 125.384 12.058 124.121 12.1036V11.7446C124.425 11.7446 124.636 11.6591 124.753 11.4882C124.87 11.3058 124.928 10.981 124.928 10.5137V7.71007H122.455V10.5137C122.455 10.981 122.514 11.3058 122.631 11.4882C122.748 11.6591 122.958 11.7446 123.262 11.7446V12.1036C122.093 12.058 121.321 12.0352 120.947 12.0352C120.55 12.0352 119.673 12.058 118.316 12.1036V11.7446C118.679 11.7446 118.93 11.6591 119.071 11.4882C119.223 11.3058 119.299 10.981 119.299 10.5137V4.83802C119.299 4.37075 119.223 4.05163 119.071 3.88068C118.93 3.69832 118.679 3.60715 118.316 3.60715V3.24814C119.579 3.29373 120.398 3.31653 120.772 3.31653C121.169 3.31653 121.999 3.29373 123.262 3.24814V3.60715C122.958 3.60715 122.748 3.69832 122.631 3.88068C122.514 4.05163 122.455 4.37075 122.455 4.83802V7.36816H124.928V4.83802C124.928 4.37075 124.87 4.05163 124.753 3.88068C124.636 3.69832 124.425 3.60715 124.121 3.60715V3.24814C125.29 3.29373 126.062 3.31653 126.436 3.31653C126.834 3.31653 127.711 3.29373 129.067 3.24814V3.60715Z" fill="black"/>
<path d="M139.085 11.7446C139.004 12.4968 138.963 13.1578 138.963 13.7277C138.963 14.1836 138.98 14.5369 139.015 14.7876H138.612C138.401 13.7961 138.074 13.1008 137.63 12.702C137.197 12.3031 136.572 12.1036 135.753 12.1036H132.877C132.059 12.1036 131.427 12.3031 130.983 12.702C130.551 13.1008 130.229 13.7961 130.019 14.7876H129.615C129.65 14.5369 129.668 14.1836 129.668 13.7277C129.668 13.1578 129.627 12.4968 129.545 11.7446H129.878C130.241 11.7446 130.562 11.6306 130.843 11.4027C131.123 11.1634 131.351 10.8556 131.527 10.4795C131.831 9.82991 132.041 9.0891 132.158 8.25712C132.275 7.41375 132.392 6.27405 132.509 4.83802C132.544 4.38214 132.445 4.06303 132.211 3.88068C131.989 3.69832 131.626 3.60715 131.123 3.60715V3.24814C131.381 3.27094 131.761 3.28233 132.263 3.28233C132.485 3.28233 132.661 3.27664 132.789 3.26524L133.929 3.24814C134.385 3.24814 134.882 3.25954 135.42 3.28233C135.864 3.30513 136.168 3.31653 136.332 3.31653C136.648 3.31653 137.39 3.29373 138.559 3.24814V3.60715C138.244 3.60715 138.027 3.69263 137.91 3.86358C137.805 4.02314 137.753 4.34225 137.753 4.82093V10.5137C137.753 10.981 137.852 11.3058 138.051 11.4882C138.249 11.6591 138.594 11.7446 139.085 11.7446ZM134.596 4.83802C134.596 4.37075 134.537 4.05163 134.42 3.88068C134.304 3.69832 134.093 3.60715 133.789 3.60715H133.631C133.409 3.60715 133.251 3.64704 133.158 3.72682C133.064 3.7952 133 3.89777 132.965 4.03454C132.941 4.1713 132.912 4.43913 132.877 4.83802L132.825 5.43637C132.708 6.72423 132.585 7.74996 132.456 8.51356C132.339 9.26576 132.146 9.94388 131.878 10.5479C131.609 11.1178 131.281 11.5167 130.895 11.7446H133.438C133.871 11.7446 134.169 11.6591 134.333 11.4882C134.508 11.3058 134.596 10.981 134.596 10.5137V4.83802Z" fill="black"/>
<path d="M141.884 12.2233C141.136 12.2233 140.569 12.0295 140.183 11.642C139.809 11.2431 139.622 10.7474 139.622 10.1547C139.622 9.64186 139.756 9.22017 140.025 8.88966C140.306 8.54775 140.633 8.28562 141.007 8.10326C141.381 7.92091 141.867 7.73286 142.463 7.53911C143.094 7.33397 143.556 7.14592 143.848 6.97496C144.141 6.80401 144.287 6.56467 144.287 6.25695V4.73545C144.287 4.37075 144.193 4.04593 144.006 3.76101C143.819 3.47608 143.498 3.33362 143.042 3.33362C142.679 3.33362 142.352 3.4305 142.06 3.62424C142.457 3.76101 142.749 3.96615 142.936 4.23968C143.135 4.50181 143.235 4.79813 143.235 5.12865C143.235 5.57313 143.071 5.93214 142.744 6.20566C142.428 6.46779 142.042 6.59886 141.586 6.59886C141.13 6.59886 140.768 6.4621 140.499 6.18857C140.242 5.90364 140.113 5.54464 140.113 5.11155C140.113 4.76964 140.201 4.47332 140.376 4.22259C140.551 3.97185 140.826 3.74391 141.2 3.53877C141.855 3.17406 142.79 2.99171 144.006 2.99171C144.649 2.99171 145.205 3.05439 145.672 3.17976C146.14 3.29373 146.537 3.51597 146.865 3.84649C147.099 4.08582 147.251 4.38784 147.321 4.75255C147.403 5.10585 147.443 5.60162 147.443 6.23986V10.8214C147.443 11.1064 147.461 11.3001 147.496 11.4027C147.543 11.5053 147.619 11.5566 147.724 11.5566C147.806 11.5566 147.894 11.5338 147.987 11.4882C148.081 11.4312 148.168 11.3685 148.25 11.3001L148.426 11.5907C147.923 12.0124 147.204 12.2233 146.268 12.2233C145.567 12.2233 145.076 12.1093 144.795 11.8814C144.515 11.642 144.363 11.3229 144.339 10.924C143.79 11.7902 142.971 12.2233 141.884 12.2233ZM143.638 10.8556C143.883 10.8556 144.1 10.7588 144.287 10.565V6.95787C144.182 7.12882 143.989 7.35106 143.708 7.62459C143.392 7.92091 143.153 8.21154 142.989 8.49646C142.825 8.76999 142.744 9.14609 142.744 9.62476C142.744 10.4453 143.042 10.8556 143.638 10.8556Z" fill="black"/>
<path d="M70.2623 32.8803C69.514 32.8803 68.947 32.6866 68.5612 32.2991C68.1871 31.9002 68 31.4044 68 30.8118C68 30.2989 68.1345 29.8772 68.4034 29.5467C68.684 29.2048 69.0113 28.9427 69.3854 28.7603C69.7596 28.578 70.2448 28.3899 70.841 28.1962C71.4724 27.991 71.9342 27.803 72.2265 27.632C72.5188 27.4611 72.6649 27.2217 72.6649 26.914V25.3925C72.6649 25.0278 72.5714 24.703 72.3843 24.4181C72.1972 24.1331 71.8757 23.9907 71.4198 23.9907C71.0573 23.9907 70.73 24.0876 70.4377 24.2813C70.8352 24.4181 71.1275 24.6232 71.3145 24.8967C71.5133 25.1589 71.6127 25.4552 71.6127 25.7857C71.6127 26.2302 71.449 26.5892 71.1216 26.8627C70.806 27.1249 70.4201 27.2559 69.9642 27.2559C69.5082 27.2559 69.1458 27.1192 68.8769 26.8456C68.6196 26.5607 68.491 26.2017 68.491 25.7686C68.491 25.4267 68.5787 25.1304 68.7541 24.8796C68.9295 24.6289 69.2042 24.401 69.5784 24.1958C70.2331 23.8311 71.1684 23.6488 72.3843 23.6488C73.0273 23.6488 73.5827 23.7114 74.0504 23.8368C74.518 23.9508 74.9155 24.173 75.2429 24.5035C75.4767 24.7429 75.6287 25.0449 75.6989 25.4096C75.7807 25.7629 75.8216 26.2587 75.8216 26.8969V31.4785C75.8216 31.7634 75.8392 31.9572 75.8742 32.0597C75.921 32.1623 75.997 32.2136 76.1022 32.2136C76.1841 32.2136 76.2717 32.1908 76.3653 32.1452C76.4588 32.0882 76.5465 32.0256 76.6283 31.9572L76.8037 32.2478C76.301 32.6695 75.5819 32.8803 74.6466 32.8803C73.9451 32.8803 73.4541 32.7664 73.1735 32.5384C72.8929 32.2991 72.7409 31.98 72.7175 31.5811C72.168 32.4472 71.3496 32.8803 70.2623 32.8803ZM72.016 31.5127C72.2616 31.5127 72.4778 31.4158 72.6649 31.2221V27.6149C72.5597 27.7859 72.3668 28.0081 72.0862 28.2816C71.7705 28.578 71.5308 28.8686 71.3672 29.1535C71.2035 29.427 71.1216 29.8031 71.1216 30.2818C71.1216 31.1024 71.4198 31.5127 72.016 31.5127Z" fill="black"/>
<path d="M82.9812 28.162C84.3725 28.1848 85.3546 28.3842 85.9275 28.7603C86.512 29.1364 86.8043 29.7063 86.8043 30.4699C86.8043 31.2221 86.5296 31.7919 85.9801 32.1794C85.4306 32.5669 84.5186 32.7607 83.2443 32.7607C83.0689 32.7607 82.6538 32.7493 81.9991 32.7265C81.1573 32.7037 80.4675 32.6923 79.9297 32.6923C79.5322 32.6923 78.6553 32.7151 77.2991 32.7607V32.4017C77.6616 32.4017 77.9129 32.3162 78.0532 32.1452C78.2052 31.9629 78.2812 31.6381 78.2812 31.1708V25.4951C78.2812 25.0278 78.2052 24.7087 78.0532 24.5377C77.9129 24.3554 77.6616 24.2642 77.2991 24.2642V23.9052C78.5618 23.9508 79.3802 23.9736 79.7543 23.9736C80.2337 23.9736 80.8592 23.9622 81.6308 23.9394C82.2622 23.9166 82.6714 23.9052 82.8584 23.9052C85.2786 23.9052 86.4887 24.5662 86.4887 25.8883C86.4887 26.5037 86.1905 27.0166 85.5943 27.4269C85.0097 27.8372 84.1387 28.0822 82.9812 28.162ZM81.4379 28.1278C82.1745 28.1164 82.6655 27.9568 82.9111 27.6491C83.1683 27.33 83.2969 26.8228 83.2969 26.1276C83.2969 25.5464 83.2092 25.0905 83.0338 24.76C82.8701 24.4295 82.5545 24.2642 82.0868 24.2642C81.8296 24.2642 81.6542 24.344 81.5607 24.5035C81.4788 24.6631 81.4379 24.9936 81.4379 25.4951V28.1278ZM82.1394 32.4017C82.6889 32.4017 83.063 32.225 83.2618 31.8717C83.4722 31.5184 83.5775 31.0568 83.5775 30.487C83.5775 29.769 83.4255 29.2561 83.1215 28.9484C82.8175 28.6293 82.3148 28.4697 81.6133 28.4697H81.4379V31.1708C81.4379 31.6723 81.4847 32.0028 81.5782 32.1623C81.6834 32.3219 81.8705 32.4017 82.1394 32.4017Z" fill="black"/>
<path d="M97.4638 23.9052C97.382 24.9081 97.3411 25.7971 97.3411 26.5721C97.3411 27.0964 97.3586 27.5066 97.3937 27.803H96.9903C96.7916 27.0052 96.5577 26.3442 96.2888 25.8199C96.0199 25.2842 95.7393 24.891 95.447 24.6403C95.1664 24.3896 94.9034 24.2642 94.6579 24.2642H94.1493V30.9998C94.1493 31.5241 94.272 31.8888 94.5176 32.0939C94.7748 32.2991 95.1548 32.4017 95.6575 32.4017V32.7607L95.1489 32.7436C93.8161 32.7094 92.9626 32.6923 92.5885 32.6923C92.191 32.6923 91.3258 32.7094 89.993 32.7436L89.4844 32.7607V32.4017C90.0222 32.4017 90.408 32.3276 90.6418 32.1794C90.8757 32.0199 90.9926 31.6836 90.9926 31.1708V24.2642H90.484C90.2385 24.2642 89.9696 24.3896 89.6773 24.6403C89.3967 24.891 89.1219 25.2842 88.853 25.8199C88.5841 26.3442 88.3503 27.0052 88.1515 27.803H87.7482C87.7833 27.5066 87.8008 27.0964 87.8008 26.5721C87.8008 25.7971 87.7599 24.9081 87.678 23.9052H89.6597L90.6243 23.9223C91.1855 23.9565 91.8285 23.9736 92.5534 23.9736C93.3016 23.9736 93.9564 23.9565 94.5176 23.9223L95.4821 23.9052H97.4638Z" fill="black"/>
<path d="M102.893 23.6488C104.331 23.6488 105.441 24.0192 106.225 24.76C107.008 25.4894 107.4 26.6804 107.4 28.3329C107.4 29.9855 107.008 31.1765 106.225 31.9059C105.441 32.6353 104.331 33 102.893 33C101.455 33 100.344 32.6353 99.5606 31.9059C98.7773 31.1765 98.3856 29.9855 98.3856 28.3329C98.3856 26.6804 98.7773 25.4894 99.5606 24.76C100.344 24.0192 101.455 23.6488 102.893 23.6488ZM102.893 23.9907C102.519 23.9907 102.22 24.3497 101.998 25.0677C101.776 25.7857 101.665 26.8741 101.665 28.3329C101.665 29.7917 101.776 30.8802 101.998 31.5982C102.22 32.3048 102.519 32.6581 102.893 32.6581C103.267 32.6581 103.565 32.3048 103.787 31.5982C104.009 30.8802 104.12 29.7917 104.12 28.3329C104.12 26.8741 104.009 25.7857 103.787 25.0677C103.565 24.3497 103.267 23.9907 102.893 23.9907Z" fill="black"/>
<path d="M117.902 28.162C119.293 28.1848 120.275 28.3842 120.848 28.7603C121.432 29.1364 121.725 29.7063 121.725 30.4699C121.725 31.2221 121.45 31.7919 120.9 32.1794C120.351 32.5669 119.439 32.7607 118.165 32.7607C117.989 32.7607 117.574 32.7493 116.919 32.7265C116.078 32.7037 115.388 32.6923 114.85 32.6923C114.453 32.6923 113.576 32.7151 112.22 32.7607V32.4017C112.582 32.4017 112.833 32.3162 112.974 32.1452C113.126 31.9629 113.202 31.6381 113.202 31.1708V25.4951C113.202 25.0278 113.126 24.7087 112.974 24.5377C112.833 24.3554 112.582 24.2642 112.22 24.2642V23.9052C113.482 23.9508 114.301 23.9736 114.675 23.9736C115.154 23.9736 115.78 23.9622 116.551 23.9394C117.183 23.9166 117.592 23.9052 117.779 23.9052C120.199 23.9052 121.409 24.5662 121.409 25.8883C121.409 26.5037 121.111 27.0166 120.515 27.4269C119.93 27.8372 119.059 28.0822 117.902 28.162ZM116.358 28.1278C117.095 28.1164 117.586 27.9568 117.831 27.6491C118.089 27.33 118.217 26.8228 118.217 26.1276C118.217 25.5464 118.13 25.0905 117.954 24.76C117.791 24.4295 117.475 24.2642 117.007 24.2642C116.75 24.2642 116.575 24.344 116.481 24.5035C116.399 24.6631 116.358 24.9936 116.358 25.4951V28.1278ZM117.06 32.4017C117.609 32.4017 117.983 32.225 118.182 31.8717C118.393 31.5184 118.498 31.0568 118.498 30.487C118.498 29.769 118.346 29.2561 118.042 28.9484C117.738 28.6293 117.235 28.4697 116.534 28.4697H116.358V31.1708C116.358 31.6723 116.405 32.0028 116.499 32.1623C116.604 32.3219 116.791 32.4017 117.06 32.4017Z" fill="black"/>
<path d="M133.378 20.4177C134.079 20.4177 134.676 20.5146 135.167 20.7083C135.658 20.9021 136.137 21.1756 136.605 21.5289C136.722 21.6315 136.833 21.6828 136.938 21.6828C137.172 21.6828 137.324 21.3409 137.394 20.6571H137.797C137.75 21.4662 137.727 22.8909 137.727 24.9309H137.324C137.242 24.0192 137.09 23.3012 136.868 22.7769C136.646 22.2526 136.26 21.8139 135.71 21.4605C135.161 21.1186 134.617 20.9477 134.079 20.9477C132.863 20.9477 132.01 21.5175 131.519 22.6572C131.028 23.7969 130.782 25.1589 130.782 26.743C130.782 28.3272 131.028 29.6892 131.519 30.8289C132.01 31.9686 132.863 32.5384 134.079 32.5384C134.617 32.5384 135.161 32.3675 135.71 32.0256C136.26 31.695 136.646 31.2506 136.868 30.6921C137.09 30.1337 137.242 29.3416 137.324 28.3158H137.727C137.727 30.4471 137.75 31.9287 137.797 32.7607H137.394C137.359 32.396 137.306 32.1395 137.236 31.9914C137.178 31.8318 137.09 31.752 136.973 31.752C136.879 31.752 136.757 31.7976 136.605 31.8888C136.079 32.2535 135.576 32.5327 135.096 32.7265C134.617 32.9088 134.038 33 133.36 33C132.039 33 130.882 32.755 129.888 32.2649C128.894 31.7748 128.122 31.0682 127.573 30.1451C127.023 29.2105 126.749 28.0993 126.749 26.8114C126.749 25.5578 127.029 24.4466 127.59 23.4778C128.152 22.5091 128.935 21.7569 129.94 21.2212C130.946 20.6855 132.092 20.4177 133.378 20.4177Z" fill="black"/>
<path d="M143.739 23.6488C145.177 23.6488 146.287 24.0192 147.071 24.76C147.854 25.4894 148.246 26.6804 148.246 28.3329C148.246 29.9855 147.854 31.1765 147.071 31.9059C146.287 32.6353 145.177 33 143.739 33C142.301 33 141.19 32.6353 140.407 31.9059C139.623 31.1765 139.232 29.9855 139.232 28.3329C139.232 26.6804 139.623 25.4894 140.407 24.76C141.19 24.0192 142.301 23.6488 143.739 23.6488ZM143.739 23.9907C143.365 23.9907 143.066 24.3497 142.844 25.0677C142.622 25.7857 142.511 26.8741 142.511 28.3329C142.511 29.7917 142.622 30.8802 142.844 31.5982C143.066 32.3048 143.365 32.6581 143.739 32.6581C144.113 32.6581 144.411 32.3048 144.633 31.5982C144.855 30.8802 144.966 29.7917 144.966 28.3329C144.966 26.8741 144.855 25.7857 144.633 25.0677C144.411 24.3497 144.113 23.9907 143.739 23.9907Z" fill="black"/>
<path d="M159.16 24.2642C158.797 24.2642 158.54 24.3554 158.388 24.5377C158.248 24.7087 158.178 25.0278 158.178 25.4951V31.1708C158.178 31.6381 158.248 31.9629 158.388 32.1452C158.54 32.3162 158.797 32.4017 159.16 32.4017V32.7607C157.897 32.7151 157.05 32.6923 156.617 32.6923C156.336 32.6923 155.477 32.7094 154.039 32.7436L153.513 32.7607V32.4017C154.016 32.4017 154.39 32.2991 154.635 32.0939C154.892 31.8888 155.021 31.5241 155.021 30.9998V29.1364C154.741 29.2618 154.343 29.3701 153.829 29.4612C153.326 29.541 152.811 29.5809 152.285 29.5809C151.315 29.5809 150.637 29.3986 150.251 29.0338C150.029 28.8401 149.889 28.6065 149.83 28.3329C149.772 28.0594 149.742 27.689 149.742 27.2217V25.4951C149.742 25.0278 149.666 24.7087 149.514 24.5377C149.374 24.3554 149.123 24.2642 148.76 24.2642V23.9052C150.023 23.9508 150.847 23.9736 151.233 23.9736C151.619 23.9736 152.443 23.9508 153.706 23.9052V24.2642C153.402 24.2642 153.191 24.3554 153.074 24.5377C152.958 24.7087 152.899 25.0278 152.899 25.4951V27.2388C152.899 27.6947 152.922 28.0423 152.969 28.2816C153.016 28.5096 153.121 28.6862 153.285 28.8116C153.449 28.9256 153.706 28.9826 154.057 28.9826C154.477 28.9826 154.799 28.9199 155.021 28.7945V25.4951C155.021 25.0278 154.963 24.7087 154.846 24.5377C154.729 24.3554 154.518 24.2642 154.214 24.2642V23.9052C155.384 23.9508 156.161 23.9736 156.547 23.9736C156.933 23.9736 157.804 23.9508 159.16 23.9052V24.2642Z" fill="black"/>
<path d="M171 24.2642C170.638 24.2642 170.38 24.3554 170.228 24.5377C170.088 24.7087 170.018 25.0278 170.018 25.4951V31.1708C170.018 31.6381 170.088 31.9629 170.228 32.1452C170.38 32.3162 170.638 32.4017 171 32.4017V32.7607C169.737 32.7151 168.919 32.6923 168.545 32.6923C168.147 32.6923 167.317 32.7151 166.054 32.7607V32.4017C166.358 32.4017 166.569 32.3162 166.686 32.1452C166.803 31.9629 166.861 31.6381 166.861 31.1708V26.025L164.038 31.4443C164.061 31.809 164.131 32.0597 164.248 32.1965C164.365 32.3333 164.564 32.4017 164.844 32.4017V32.7607C163.675 32.7151 162.904 32.6923 162.53 32.6923C162.132 32.6923 161.255 32.7151 159.899 32.7607V32.4017C160.261 32.4017 160.513 32.3162 160.653 32.1452C160.805 31.9629 160.881 31.6381 160.881 31.1708V25.4951C160.881 25.0278 160.805 24.7087 160.653 24.5377C160.513 24.3554 160.261 24.2642 159.899 24.2642V23.9052C161.162 23.9508 161.98 23.9736 162.354 23.9736C162.752 23.9736 163.582 23.9508 164.844 23.9052V24.2642C164.54 24.2642 164.33 24.3554 164.213 24.5377C164.096 24.7087 164.038 25.0278 164.038 25.4951V30.6921L166.861 25.307C166.85 24.9081 166.779 24.6346 166.651 24.4864C166.534 24.3383 166.335 24.2642 166.054 24.2642V23.9052C167.224 23.9508 167.995 23.9736 168.369 23.9736C168.767 23.9736 169.644 23.9508 171 23.9052V24.2642Z" fill="black"/>
</svg>
