<svg width="70" height="70" viewBox="0 0 70 70" fill="none" xmlns="http://www.w3.org/2000/svg">
<path d="M34.6384 7.93817C19.8679 7.93817 7.8501 19.956 7.8501 34.7279C7.8501 49.4991 19.8679 61.5169 34.6384 61.5169C49.4103 61.5169 61.4281 49.4991 61.4281 34.7279C61.4281 19.956 49.4103 7.93817 34.6384 7.93817V7.93817ZM34.6384 59.0984C21.2013 59.0984 10.2686 48.1656 10.2686 34.7279C10.2686 21.2901 21.2013 10.3567 34.6384 10.3567C48.0768 10.3567 59.0096 21.2901 59.0096 34.7279C59.0096 48.1656 48.0768 59.0984 34.6384 59.0984Z" fill="white"/>
<path d="M34.6384 11.7158C21.9501 11.7158 11.627 22.0389 11.627 34.7279C11.627 47.4162 21.9501 57.7393 34.6384 57.7393C47.3288 57.7393 57.6512 47.4162 57.6512 34.7279C57.6512 22.0382 47.3288 11.7158 34.6384 11.7158V11.7158ZM34.6384 55.3208C23.2828 55.3208 14.0455 46.0827 14.0455 34.7279C14.0455 23.3723 23.2835 14.1343 34.6384 14.1343C45.9939 14.1343 55.2327 23.3723 55.2327 34.7279C55.2327 46.0827 45.9939 55.3208 34.6384 55.3208Z" fill="white"/>
<path d="M5.30522 34.7279C5.30522 30.7677 6.08025 26.9264 7.60955 23.3094C7.86905 22.6942 7.58256 21.9849 6.96669 21.7247C6.35428 21.4652 5.64222 21.7524 5.38203 22.3683C3.7261 26.2843 2.88672 30.4424 2.88672 34.7279C2.88672 40.6797 4.54334 46.4821 7.67806 51.5087C7.90711 51.8761 8.30154 52.0782 8.70566 52.0782C8.92433 52.0782 9.14508 52.0187 9.34437 51.8948C9.91111 51.5412 10.0834 50.7952 9.7305 50.2285C6.83591 45.5866 5.30522 40.2265 5.30522 34.7279V34.7279Z" fill="white"/>
<path d="M60.7906 16.7119C60.41 16.1624 59.6592 16.022 59.1077 16.4032C58.5583 16.7831 58.4205 17.536 58.7991 18.0855C62.1836 22.9903 63.9731 28.7456 63.9731 34.7278C63.9731 40.6063 62.241 46.2771 58.9645 51.1266C58.5901 51.6809 58.7354 52.4324 59.289 52.8061C59.4959 52.9466 59.7326 53.0137 59.9644 53.0137C60.3533 53.0137 60.7346 52.8275 60.9671 52.4815C64.5163 47.2307 66.3916 41.0907 66.3916 34.7278C66.3916 28.2522 64.4547 22.0229 60.7906 16.7119Z" fill="white"/>
<path d="M37.6265 45.6288C37.6265 47.2785 36.2889 48.6161 34.6392 48.6161C32.9895 48.6161 31.6519 47.2785 31.6519 45.6288C31.6519 43.9791 32.9895 42.6415 34.6392 42.6415C36.2889 42.6415 37.6265 43.9791 37.6265 45.6288Z" fill="white"/>
<path d="M34.639 18.8861C33.4322 18.8861 32.2703 19.3954 31.4531 20.2839C30.6359 21.1724 30.2248 22.373 30.3258 23.575L31.4316 36.8502C31.5693 38.5054 32.9782 39.8015 34.639 39.8015C36.2991 39.8015 37.7094 38.5054 37.8478 36.8495L38.9529 23.5757C39.0546 22.373 38.6436 21.1731 37.8263 20.2846C37.0084 19.3954 35.8472 18.8861 34.639 18.8861ZM35.439 36.6481C35.4037 37.0668 35.0597 37.383 34.639 37.383C34.2259 37.383 33.8764 37.0598 33.8405 36.6488L32.7354 23.3737C32.6904 22.8353 32.8675 22.3198 33.2336 21.9219C33.5996 21.5233 34.0979 21.3046 34.639 21.3046C35.1795 21.3046 35.6791 21.524 36.0451 21.9226C36.4112 22.3198 36.5883 22.8353 36.5434 23.3744L35.439 36.6481Z" fill="white"/>
</svg>
